<svg width="153" height="24" viewBox="0 0 153 24" fill="none" xmlns="http://www.w3.org/2000/svg">
<path fill-rule="evenodd" clip-rule="evenodd" d="M1.03055 5.62795C0.79859 3.78205 2.37862 2.5 4.07554 2.5H7.6672C8.39213 2.5 9.01333 3.01844 9.14301 3.73167L9.74935 7.06653C9.93046 8.06268 9.67133 9.08845 9.03884 9.87906L8.31545 10.7833C8.18654 10.9444 8.17475 11.1581 8.27434 11.3205C8.7439 12.0862 9.58857 13.3797 10.3553 14.1464C11.1221 14.9132 12.4156 15.7579 13.1813 16.2274C13.3437 16.327 13.5573 16.3152 13.7185 16.1863L14.6227 15.4629C15.4133 14.8304 16.4391 14.5713 17.4352 14.7524L20.7701 15.3588C21.4833 15.4885 22.0018 16.1096 22.0018 16.8346V20.1816C22.0018 22.0032 20.5508 23.624 18.6171 23.313C15.3045 22.7803 10.5694 21.0768 6.63538 16.8402C2.81033 12.7209 1.39331 8.51475 1.03055 5.62795ZM4.07554 3.5C2.81103 3.5 1.88547 4.41084 2.02275 5.50326C2.36104 8.19537 3.69444 12.2034 7.36818 16.1598C11.1177 20.1977 15.6307 21.8199 18.7758 22.3257C19.9703 22.5178 21.0018 21.5285 21.0018 20.1816V16.8346C21.0018 16.5929 20.829 16.3859 20.5912 16.3426L17.2564 15.7363C16.5448 15.6069 15.8121 15.792 15.2474 16.2438L14.3432 16.9672C13.8653 17.3495 13.1937 17.4081 12.6585 17.0799C11.8953 16.6119 10.508 15.7133 9.64823 14.8536C8.78849 13.9938 7.8899 12.6064 7.42187 11.8433C7.09367 11.3081 7.15231 10.6364 7.53458 10.1586L8.25797 9.25437C8.70975 8.68964 8.89485 7.95695 8.76548 7.24541L8.15914 3.91056C8.11591 3.67281 7.90885 3.5 7.6672 3.5H4.07554Z" fill="#414141"/>
<path d="M37.588 17.16C36.756 17.16 36.0253 17.0267 35.396 16.76C34.7667 16.4827 34.276 16.088 33.924 15.576C33.572 15.064 33.396 14.4667 33.396 13.784C33.396 13.1547 33.5507 12.6053 33.86 12.136C34.1693 11.656 34.5907 11.288 35.124 11.032C34.6973 10.7867 34.3667 10.4667 34.132 10.072C33.908 9.66667 33.796 9.19733 33.796 8.664C33.796 7.72533 34.1373 6.98933 34.82 6.456C35.5133 5.912 36.436 5.64 37.588 5.64C38.7293 5.64 39.6413 5.912 40.324 6.456C41.0173 6.98933 41.364 7.72 41.364 8.648C41.364 9.18133 41.2467 9.65067 41.012 10.056C40.788 10.4507 40.468 10.776 40.052 11.032C40.5853 11.288 41.0067 11.656 41.316 12.136C41.6253 12.6053 41.78 13.1547 41.78 13.784C41.78 14.4667 41.604 15.064 41.252 15.576C40.9 16.088 40.404 16.4827 39.764 16.76C39.1347 17.0267 38.4093 17.16 37.588 17.16ZM37.588 10.456C38.228 10.4453 38.7667 10.28 39.204 9.96C39.6413 9.64 39.86 9.21867 39.86 8.696C39.86 8.16267 39.6413 7.736 39.204 7.416C38.7773 7.08533 38.2387 6.92 37.588 6.92C36.9267 6.92 36.3773 7.08 35.94 7.4C35.5133 7.72 35.3 8.152 35.3 8.696C35.3 9.22933 35.5133 9.656 35.94 9.976C36.3773 10.296 36.9267 10.456 37.588 10.456ZM37.588 15.88C38.3347 15.88 38.9587 15.688 39.46 15.304C39.9613 14.92 40.212 14.4133 40.212 13.784C40.212 13.1547 39.9613 12.6533 39.46 12.28C38.9587 11.9067 38.3347 11.72 37.588 11.72C36.8307 11.72 36.2013 11.9067 35.7 12.28C35.1987 12.6533 34.948 13.1547 34.948 13.784C34.948 14.4133 35.1987 14.92 35.7 15.304C36.2013 15.688 36.8307 15.88 37.588 15.88ZM51.6818 17.16C50.8498 17.16 50.1191 17.0267 49.4898 16.76C48.8604 16.4827 48.3698 16.088 48.0178 15.576C47.6658 15.064 47.4898 14.4667 47.4898 13.784C47.4898 13.1547 47.6444 12.6053 47.9538 12.136C48.2631 11.656 48.6844 11.288 49.2178 11.032C48.7911 10.7867 48.4604 10.4667 48.2258 10.072C48.0018 9.66667 47.8898 9.19733 47.8898 8.664C47.8898 7.72533 48.2311 6.98933 48.9138 6.456C49.6071 5.912 50.5298 5.64 51.6818 5.64C52.8231 5.64 53.7351 5.912 54.4178 6.456C55.1111 6.98933 55.4578 7.72 55.4578 8.648C55.4578 9.18133 55.3404 9.65067 55.1058 10.056C54.8818 10.4507 54.5618 10.776 54.1458 11.032C54.6791 11.288 55.1004 11.656 55.4097 12.136C55.7191 12.6053 55.8738 13.1547 55.8738 13.784C55.8738 14.4667 55.6978 15.064 55.3458 15.576C54.9938 16.088 54.4978 16.4827 53.8578 16.76C53.2284 17.0267 52.5031 17.16 51.6818 17.16ZM51.6818 10.456C52.3218 10.4453 52.8604 10.28 53.2978 9.96C53.7351 9.64 53.9538 9.21867 53.9538 8.696C53.9538 8.16267 53.7351 7.736 53.2978 7.416C52.8711 7.08533 52.3324 6.92 51.6818 6.92C51.0204 6.92 50.4711 7.08 50.0338 7.4C49.6071 7.72 49.3938 8.152 49.3938 8.696C49.3938 9.22933 49.6071 9.656 50.0338 9.976C50.4711 10.296 51.0204 10.456 51.6818 10.456ZM51.6818 15.88C52.4284 15.88 53.0524 15.688 53.5538 15.304C54.0551 14.92 54.3058 14.4133 54.3058 13.784C54.3058 13.1547 54.0551 12.6533 53.5538 12.28C53.0524 11.9067 52.4284 11.72 51.6818 11.72C50.9244 11.72 50.2951 11.9067 49.7938 12.28C49.2924 12.6533 49.0418 13.1547 49.0418 13.784C49.0418 14.4133 49.2924 14.92 49.7938 15.304C50.2951 15.688 50.9244 15.88 51.6818 15.88ZM61.8376 17.16C60.4616 17.16 59.4536 16.76 58.8136 15.96C58.1736 15.16 57.8323 14.1093 57.7896 12.808C57.779 12.52 57.7736 12.056 57.7736 11.416C57.7736 10.7547 57.779 10.2747 57.7896 9.976C57.8216 8.696 58.163 7.656 58.8136 6.856C59.4643 6.04533 60.4723 5.64 61.8376 5.64C63.2136 5.64 64.227 6.04533 64.8776 6.856C65.5283 7.656 65.8696 8.696 65.9016 9.976C65.923 10.5733 65.9336 11.0533 65.9336 11.416C65.9336 11.768 65.923 12.232 65.9016 12.808C65.859 14.1093 65.5176 15.16 64.8776 15.96C64.2376 16.76 63.2243 17.16 61.8376 17.16ZM61.8376 15.784C62.6376 15.784 63.2403 15.5173 63.6456 14.984C64.0616 14.4507 64.2803 13.6987 64.3016 12.728C64.323 12.1093 64.3336 11.6613 64.3336 11.384C64.3336 11.0853 64.323 10.648 64.3016 10.072C64.2803 9.112 64.067 8.36 63.6616 7.816C63.2563 7.272 62.6483 7 61.8376 7C61.0376 7 60.4296 7.272 60.0136 7.816C59.6083 8.36 59.395 9.112 59.3736 10.072L59.3576 11.384L59.3736 12.728C59.395 13.6987 59.6083 14.4507 60.0136 14.984C60.4296 15.5173 61.0376 15.784 61.8376 15.784ZM71.9939 17.16C70.6179 17.16 69.6099 16.76 68.9699 15.96C68.3299 15.16 67.9885 14.1093 67.9459 12.808C67.9352 12.52 67.9299 12.056 67.9299 11.416C67.9299 10.7547 67.9352 10.2747 67.9459 9.976C67.9779 8.696 68.3192 7.656 68.9699 6.856C69.6205 6.04533 70.6285 5.64 71.9939 5.64C73.3699 5.64 74.3832 6.04533 75.0339 6.856C75.6845 7.656 76.0259 8.696 76.0579 9.976C76.0792 10.5733 76.0899 11.0533 76.0899 11.416C76.0899 11.768 76.0792 12.232 76.0579 12.808C76.0152 14.1093 75.6739 15.16 75.0339 15.96C74.3939 16.76 73.3805 17.16 71.9939 17.16ZM71.9939 15.784C72.7939 15.784 73.3965 15.5173 73.8019 14.984C74.2179 14.4507 74.4365 13.6987 74.4579 12.728C74.4792 12.1093 74.4899 11.6613 74.4899 11.384C74.4899 11.0853 74.4792 10.648 74.4579 10.072C74.4365 9.112 74.2232 8.36 73.8179 7.816C73.4125 7.272 72.8045 7 71.9939 7C71.1939 7 70.5859 7.272 70.1699 7.816C69.7645 8.36 69.5512 9.112 69.5299 10.072L69.5139 11.384L69.5299 12.728C69.5512 13.6987 69.7645 14.4507 70.1699 14.984C70.5859 15.5173 71.1939 15.784 71.9939 15.784ZM83.384 17C83.288 17 83.208 16.968 83.144 16.904C83.0907 16.8293 83.064 16.744 83.064 16.648L83.096 16.504L87.08 7.192H81.832C81.7253 7.192 81.6347 7.16 81.56 7.096C81.496 7.02133 81.464 6.93067 81.464 6.824V6.184C81.464 6.06667 81.496 5.976 81.56 5.912C81.6347 5.83733 81.7253 5.8 81.832 5.8H88.392C88.5093 5.8 88.6 5.83733 88.664 5.912C88.7387 5.976 88.776 6.06667 88.776 6.184V6.776C88.776 6.968 88.7333 7.176 88.648 7.4L84.712 16.6C84.6587 16.7173 84.5947 16.8133 84.52 16.888C84.456 16.9627 84.3653 17 84.248 17H83.384ZM91.5871 17C91.4911 17 91.4111 16.968 91.3471 16.904C91.2938 16.8293 91.2671 16.744 91.2671 16.648L91.2991 16.504L95.2831 7.192H90.0351C89.9285 7.192 89.8378 7.16 89.7631 7.096C89.6991 7.02133 89.6671 6.93067 89.6671 6.824V6.184C89.6671 6.06667 89.6991 5.976 89.7631 5.912C89.8378 5.83733 89.9285 5.8 90.0351 5.8H96.5951C96.7125 5.8 96.8031 5.83733 96.8671 5.912C96.9418 5.976 96.9791 6.06667 96.9791 6.184V6.776C96.9791 6.968 96.9365 7.176 96.8511 7.4L92.9151 16.6C92.8618 16.7173 92.7978 16.8133 92.7231 16.888C92.6591 16.9627 92.5685 17 92.4511 17H91.5871ZM99.7903 17C99.6943 17 99.6143 16.968 99.5503 16.904C99.4969 16.8293 99.4703 16.744 99.4703 16.648L99.5023 16.504L103.486 7.192H98.2383C98.1316 7.192 98.0409 7.16 97.9663 7.096C97.9023 7.02133 97.8703 6.93067 97.8703 6.824V6.184C97.8703 6.06667 97.9023 5.976 97.9663 5.912C98.0409 5.83733 98.1316 5.8 98.2383 5.8H104.798C104.916 5.8 105.006 5.83733 105.07 5.912C105.145 5.976 105.182 6.06667 105.182 6.184V6.776C105.182 6.968 105.14 7.176 105.054 7.4L101.118 16.6C101.065 16.7173 101.001 16.8133 100.926 16.888C100.862 16.9627 100.772 17 100.654 17H99.7903ZM114.299 17.16C113.457 17.16 112.726 17.0267 112.107 16.76C111.499 16.4827 111.035 16.1253 110.715 15.688C110.406 15.2507 110.241 14.792 110.219 14.312C110.219 14.216 110.251 14.1413 110.315 14.088C110.379 14.024 110.459 13.992 110.555 13.992H111.339C111.563 13.992 111.713 14.1093 111.787 14.344C111.926 14.8773 112.225 15.256 112.683 15.48C113.142 15.6933 113.681 15.8 114.299 15.8C115.057 15.8 115.659 15.624 116.107 15.272C116.555 14.9093 116.779 14.392 116.779 13.72C116.779 12.4293 115.995 11.784 114.427 11.784H112.907C112.801 11.784 112.71 11.752 112.635 11.688C112.571 11.6133 112.539 11.5227 112.539 11.416V10.984C112.539 10.8347 112.598 10.6907 112.715 10.552L115.819 7.16H111.099C110.993 7.16 110.902 7.128 110.827 7.064C110.763 6.98933 110.731 6.89867 110.731 6.792V6.184C110.731 6.07733 110.763 5.98667 110.827 5.912C110.902 5.83733 110.993 5.8 111.099 5.8H117.483C117.601 5.8 117.691 5.83733 117.755 5.912C117.83 5.976 117.867 6.06667 117.867 6.184V6.76C117.867 6.888 117.809 7.01067 117.691 7.128L114.603 10.568L114.859 10.584C115.947 10.616 116.806 10.8987 117.435 11.432C118.065 11.9653 118.379 12.744 118.379 13.768C118.379 14.4613 118.203 15.064 117.851 15.576C117.499 16.088 117.014 16.4827 116.395 16.76C115.777 17.0267 115.078 17.16 114.299 17.16ZM123.909 17.16C123.066 17.16 122.335 17.0267 121.717 16.76C121.109 16.4827 120.645 16.1253 120.325 15.688C120.015 15.2507 119.85 14.792 119.829 14.312C119.829 14.216 119.861 14.1413 119.925 14.088C119.989 14.024 120.069 13.992 120.165 13.992H120.949C121.173 13.992 121.322 14.1093 121.397 14.344C121.535 14.8773 121.834 15.256 122.293 15.48C122.751 15.6933 123.29 15.8 123.909 15.8C124.666 15.8 125.269 15.624 125.717 15.272C126.165 14.9093 126.389 14.392 126.389 13.72C126.389 12.4293 125.605 11.784 124.037 11.784H122.517C122.41 11.784 122.319 11.752 122.245 11.688C122.181 11.6133 122.149 11.5227 122.149 11.416V10.984C122.149 10.8347 122.207 10.6907 122.325 10.552L125.429 7.16H120.709C120.602 7.16 120.511 7.128 120.437 7.064C120.373 6.98933 120.341 6.89867 120.341 6.792V6.184C120.341 6.07733 120.373 5.98667 120.437 5.912C120.511 5.83733 120.602 5.8 120.709 5.8H127.093C127.21 5.8 127.301 5.83733 127.365 5.912C127.439 5.976 127.477 6.06667 127.477 6.184V6.76C127.477 6.888 127.418 7.01067 127.301 7.128L124.213 10.568L124.469 10.584C125.557 10.616 126.415 10.8987 127.045 11.432C127.674 11.9653 127.989 12.744 127.989 13.768C127.989 14.4613 127.813 15.064 127.461 15.576C127.109 16.088 126.623 16.4827 126.005 16.76C125.386 17.0267 124.687 17.16 123.909 17.16ZM137.44 17.16C136.597 17.16 135.867 17.0267 135.248 16.76C134.64 16.4827 134.176 16.1253 133.856 15.688C133.547 15.2507 133.381 14.792 133.36 14.312C133.36 14.216 133.392 14.1413 133.456 14.088C133.52 14.024 133.6 13.992 133.696 13.992H134.48C134.704 13.992 134.853 14.1093 134.928 14.344C135.067 14.8773 135.365 15.256 135.824 15.48C136.283 15.6933 136.821 15.8 137.44 15.8C138.197 15.8 138.8 15.624 139.248 15.272C139.696 14.9093 139.92 14.392 139.92 13.72C139.92 12.4293 139.136 11.784 137.568 11.784H136.048C135.941 11.784 135.851 11.752 135.776 11.688C135.712 11.6133 135.68 11.5227 135.68 11.416V10.984C135.68 10.8347 135.739 10.6907 135.856 10.552L138.96 7.16H134.24C134.133 7.16 134.043 7.128 133.968 7.064C133.904 6.98933 133.872 6.89867 133.872 6.792V6.184C133.872 6.07733 133.904 5.98667 133.968 5.912C134.043 5.83733 134.133 5.8 134.24 5.8H140.624C140.741 5.8 140.832 5.83733 140.896 5.912C140.971 5.976 141.008 6.06667 141.008 6.184V6.76C141.008 6.888 140.949 7.01067 140.832 7.128L137.744 10.568L138 10.584C139.088 10.616 139.947 10.8987 140.576 11.432C141.205 11.9653 141.52 12.744 141.52 13.768C141.52 14.4613 141.344 15.064 140.992 15.576C140.64 16.088 140.155 16.4827 139.536 16.76C138.917 17.0267 138.219 17.16 137.44 17.16ZM147.049 17.16C146.207 17.16 145.476 17.0267 144.857 16.76C144.249 16.4827 143.785 16.1253 143.465 15.688C143.156 15.2507 142.991 14.792 142.969 14.312C142.969 14.216 143.001 14.1413 143.065 14.088C143.129 14.024 143.209 13.992 143.305 13.992H144.089C144.313 13.992 144.463 14.1093 144.537 14.344C144.676 14.8773 144.975 15.256 145.433 15.48C145.892 15.6933 146.431 15.8 147.049 15.8C147.807 15.8 148.409 15.624 148.857 15.272C149.305 14.9093 149.529 14.392 149.529 13.72C149.529 12.4293 148.745 11.784 147.177 11.784H145.657C145.551 11.784 145.46 11.752 145.385 11.688C145.321 11.6133 145.289 11.5227 145.289 11.416V10.984C145.289 10.8347 145.348 10.6907 145.465 10.552L148.569 7.16H143.849C143.743 7.16 143.652 7.128 143.577 7.064C143.513 6.98933 143.481 6.89867 143.481 6.792V6.184C143.481 6.07733 143.513 5.98667 143.577 5.912C143.652 5.83733 143.743 5.8 143.849 5.8H150.233C150.351 5.8 150.441 5.83733 150.505 5.912C150.58 5.976 150.617 6.06667 150.617 6.184V6.76C150.617 6.888 150.559 7.01067 150.441 7.128L147.353 10.568L147.609 10.584C148.697 10.616 149.556 10.8987 150.185 11.432C150.815 11.9653 151.129 12.744 151.129 13.768C151.129 14.4613 150.953 15.064 150.601 15.576C150.249 16.088 149.764 16.4827 149.145 16.76C148.527 17.0267 147.828 17.16 147.049 17.16Z" fill="#414141"/>
</svg>
